<svg xmlns="http://www.w3.org/2000/svg" width="861.575" height="656.837" viewBox="0 0 861.575 656.837"><defs><style>.a,.e,.f{fill:#cbcdcb;}.a{opacity:0.15;}.b{fill:#bad3f1;}.c{fill:#0d2745;}.d{fill:#2161ab;}.e{opacity:0.5;}.g{fill:#fae089;}.h{fill:#f8a18c;}.i{fill:#f04419;}.j{fill:#f36644;}.k{fill:#317fd8;}.l{fill:#f7f9fc;}.m{fill:#fafafa;}.n,.r{fill:#d5d7d5;}.o{fill:#f5c114;}.p{fill:#fff;}.q{fill:#e66a50;}.r{font-size:7px;font-family:NunitoSans-Regular, Nunito Sans;}.s{fill:#455a64;}.t{fill:#b78876;}.u{fill:#aa6550;}.v{opacity:0.3;}.w{fill:#103157;}.x{fill:#263238;}.y{fill:#fcf7f8;}.z{fill:#ffbe9d;}.aa{fill:#eb996e;}.ab{opacity:0.78;}</style></defs><g transform="translate(59.806 220.601)"><path class="a" d="M742.7-53.6C868.7,102,776.7,281,621,407.1c-72.2,58.5-155,13.9-253.5-4.6C253.5,381.1,124,375.4,56.5,292-69.5,136.4,9-30.5,164.7-156.5S616.7-209.3,742.7-53.6Z"/><path class="b" d="M443.3-199.7C317.7-182.1,287.7-58.9,65.7,21.6-189.2,114.1-17.9,338,241.9,353.8c279.4,17,504.3-78.1,425.7-354.6-.2,0-57.3-222.2-224.3-198.9"/><path class="c" d="M82.8-41.1h469a14.553,14.553,0,0,1,14.6,14.6V273.8a14.553,14.553,0,0,1-14.6,14.6H82.8a14.553,14.553,0,0,1-14.6-14.6V-26.5A14.552,14.552,0,0,1,82.8-41.1Z"/><path class="d" d="M48.7,267H588.4v11a17.839,17.839,0,0,1-17.8,17.8H66.5A17.839,17.839,0,0,1,48.7,278Z"/><path class="e" d="M88.9-28H544.3a7.341,7.341,0,0,1,7.3,7.3V250.2H81.6V-20.7A7.341,7.341,0,0,1,88.9-28Z"/><path class="c" d="M268.2,264l6.7,10.6h94.2l6.2-10.6Z"/><path class="f" d="M94.5-18.6H539.6a3.329,3.329,0,0,1,3.3,3.3V246.1a3.329,3.329,0,0,1-3.3,3.3H94.5a3.329,3.329,0,0,1-3.3-3.3V-15.3A3.328,3.328,0,0,1,94.5-18.6Z"/><path class="g" d="M542.9,250.6H91.1L91.9,2.4h451Z"/><path class="h" d="M129.1-8.3a3.585,3.585,0,0,1-3.6,3.6,3.585,3.585,0,0,1-3.6-3.6,3.585,3.585,0,0,1,3.6-3.6,3.65,3.65,0,0,1,3.6,3.6Z"/><path class="i" d="M107.2-8.3a3.585,3.585,0,0,1-3.6,3.6A3.585,3.585,0,0,1,100-8.3a3.585,3.585,0,0,1,3.6-3.6,3.65,3.65,0,0,1,3.6,3.6Z"/><path class="j" d="M118.2-8.3a3.585,3.585,0,0,1-3.6,3.6A3.585,3.585,0,0,1,111-8.3a3.585,3.585,0,0,1,3.6-3.6h0A3.871,3.871,0,0,1,118.2-8.3Z"/><rect class="k" width="451.7" height="45" transform="translate(91.2 205.6)"/><circle class="l" cx="16.7" cy="16.7" r="16.7" transform="translate(348.4 211.6)"/><path class="k" d="M365.1,232a2.989,2.989,0,0,1-3-2.9v-6.6a3,3,0,0,1,6,0V229A3.009,3.009,0,0,1,365.1,232Zm0-12a2.433,2.433,0,0,0-2.4,2.4v6.5a2.4,2.4,0,0,0,4.8,0h0v-6.5A2.581,2.581,0,0,0,365.1,220Z"/><path class="k" d="M371.2,226.9a.3.3,0,1,0-.6,0h0s.2,3.2-1.7,5.1a4.974,4.974,0,0,1-3.8,1.5,5.367,5.367,0,0,1-3.8-1.5c-1.7-1.9-1.4-5.1-1.4-5.1v-.1a.3.3,0,1,0-.6,0h0c0,.2-.3,3.5,1.6,5.6a5.22,5.22,0,0,0,3.9,1.7v4.3a.3.3,0,1,0,.6,0v-4.3a5.521,5.521,0,0,0,3.9-1.6C371.3,230.4,371.2,227,371.2,226.9Z"/><circle class="l" cx="16.7" cy="16.7" r="16.7" transform="translate(259.8 211.5)"/><path class="k" d="M271.2,226.7a1.6,1.6,0,1,1-1.6,1.6,1.58,1.58,0,0,1,1.6-1.6h0m0-.5a2.1,2.1,0,1,0,0,4.2,2.36,2.36,0,0,0,1.6-.7,1.872,1.872,0,0,0,.5-1.4,2.18,2.18,0,0,0-2.1-2.1Z"/><path class="k" d="M276.7,226.6a1.669,1.669,0,0,1,1.5,1.8,1.7,1.7,0,0,1-1.5,1.5h-.2a1.708,1.708,0,0,1-1.6-1.5,1.669,1.669,0,0,1,1.5-1.8h.3m0-.5h-.3a2.239,2.239,0,0,0-1.5.8,1.845,1.845,0,0,0-.5,1.6,2.248,2.248,0,0,0,2.1,2h.2a1.985,1.985,0,0,0,1.9-2,1.845,1.845,0,0,0-.5-1.6,2.851,2.851,0,0,0-1.4-.8Z"/><path class="k" d="M281.8,226.7a1.58,1.58,0,0,1,1.6,1.6h0a1.6,1.6,0,1,1-1.6-1.6h0m0-.5a2.1,2.1,0,1,0,0,4.2,2.1,2.1,0,0,0,0-4.2Z"/><circle class="l" cx="16.4" cy="16.4" r="16.4" transform="translate(304.4 211.8)"/><path class="k" d="M317.6,223.1a2.715,2.715,0,0,1,1.7.6l1.1.8-1.7,1.8,3.7,3.7,1.6-1.7s3.7,1.7,2.2,3.8a3.219,3.219,0,0,1-2,1.2c-.2,0-.3.1-.5.1a3.255,3.255,0,0,1-2.3-1c-1.3-1.2-4.5-4.2-6-5.7a1.685,1.685,0,0,1-.4-2.1c.1-.1.2-.3.3-.4a2.844,2.844,0,0,1,2.3-1.1m0-.5a3.317,3.317,0,0,0-2.6,1.3c-.1.1-.1.2-.2.2l-.1.1h0v.1a2.158,2.158,0,0,0,.5,2.7c1.5,1.5,4.6,4.4,6,5.7a3.631,3.631,0,0,0,2.6,1.1,1.268,1.268,0,0,0,.6-.1,4.254,4.254,0,0,0,2.3-1.4,2.116,2.116,0,0,0,.4-1.9c-.4-1.6-2.5-2.6-2.8-2.7l-.3-.2-.2.3-1.2,1.3-3-3,1.4-1.4.4-.4-.5-.3-1.1-.8a9.014,9.014,0,0,0-2.2-.6Z"/><path class="j" d="M511.4,45.7h0a16.986,16.986,0,0,1-17-17h0a16.986,16.986,0,0,1,17-17h0a16.986,16.986,0,0,1,17,17h0a16.986,16.986,0,0,1-17,17Z"/><path class="l" d="M510.4,29a3.606,3.606,0,0,0-2.1-6.9,3.688,3.688,0,0,0-2.4,4.5,4.065,4.065,0,0,0,2.4,2.4,6.24,6.24,0,0,0-5.3,6.2h12.6A6.61,6.61,0,0,0,510.4,29Z"/><path class="l" d="M520.4,26.1H518V23.7a.472.472,0,0,0-.5-.5.642.642,0,0,0-.5.5v2.4h-2.4a.472.472,0,0,0-.5.5.642.642,0,0,0,.5.5H517v2.4a.472.472,0,0,0,.5.5.458.458,0,0,0,.5-.4V27.1h2.4a.472.472,0,0,0,.5-.5A1.206,1.206,0,0,0,520.4,26.1Z"/><path class="m" d="M200.1,250.6l-108.9-.5V2.3H200.1Z"/><path class="d" d="M200.1,248.6c-.1,0-.3-55.1-.3-123.1s.1-123.1.3-123.1.3,55.1.3,123.1S200.3,248.6,200.1,248.6Z"/><path class="n" d="M196.8,202.9c0,.1-23.2.3-51.7.3s-51.8-.1-51.8-.3,23.2-.3,51.8-.3S196.8,202.8,196.8,202.9Z"/><path class="o" d="M113.2,40.3h0A21.254,21.254,0,0,1,134.5,19h27.6a21.3,21.3,0,0,1,21.1,21.4l-.1,21.1H134.5A21.3,21.3,0,0,1,113.2,40.3Z"/><path class="n" d="M182.6,239.5h-77a9.389,9.389,0,0,1-9.4-9.4h0v-.4a9.389,9.389,0,0,1,9.4-9.4h77a9.389,9.389,0,0,1,9.4,9.4h0v.4a9.389,9.389,0,0,1-9.4,9.4Zm-77-18.6a8.749,8.749,0,0,0-8.8,8.8v.4a8.749,8.749,0,0,0,8.8,8.8h77a8.749,8.749,0,0,0,8.8-8.8v-.4a8.749,8.749,0,0,0-8.8-8.8Z"/><path class="d" d="M187.9,229.6a4.8,4.8,0,1,1-4.8-4.8h0A5.007,5.007,0,0,1,187.9,229.6Z"/><path class="p" d="M182.9,232.6h0c-.1,0-.1,0-.1-.1l-.6-2.3-2.1-.8c-.1,0-.1,0-.1-.1h0c0-.1,0-.1.1-.1l5-1.8h.2v.2l-2.2,4.9A.31.31,0,0,1,182.9,232.6Zm-2.3-3.3,1.8.6.1.1.5,1.9,1.9-4.2Z"/><path class="p" d="M182.3,230.2h-.1c-.1-.1-.1-.2,0-.2l2.8-2.6h.2v.2Z"/><path class="q" d="M105.5,231.5a1.093,1.093,0,0,1-1.5.1,1.075,1.075,0,0,1-.2-1.4l.1-.1,2.2-2.6a.54.54,0,0,1,.8-.2l.1.1.1.1a.769.769,0,0,1,.1,1l-1.8,2.2h0a.454.454,0,0,1-.5,0,.44.44,0,0,1-.1-.5l1.4-1.7-.2-.2-1.4,1.6h0l-.1.1h0a.524.524,0,0,0,.2.8c.2.2.5.1.7,0h0l1.8-2.1h0a.922.922,0,1,0-1.4-1.2h0l-2.2,2.7h0a1.155,1.155,0,0,0,.1,1.7l.1.1a1.285,1.285,0,0,0,1.8-.2h0l1.8-2.2-.2-.2Z"/><path class="g" d="M165.9,30.7c0,.1-9.2.2-20.5.2s-20.5-.1-20.5-.2,9.2-.2,20.5-.2S165.9,30.6,165.9,30.7Z"/><path class="g" d="M165.9,35.8c0,.1-9.2.2-20.5.2s-20.5-.1-20.5-.2,9.2-.2,20.5-.2S165.9,35.7,165.9,35.8Z"/><path class="g" d="M165.9,40.8c0,.1-9.2.2-20.5.2s-20.5-.1-20.5-.2,9.2-.2,20.5-.2S165.9,40.7,165.9,40.8Z"/><path class="g" d="M165.9,45.9c0,.1-9.2.2-20.5.2s-20.5-.1-20.5-.2,9.2-.2,20.5-.2S165.9,45.8,165.9,45.9Z"/><path class="g" d="M145.5,51a2.2,2.2,0,0,1-.8.1l-2.2.1H127.9l-2.2-.1a2.2,2.2,0,0,1-.8-.1c.3,0,.5-.1.8-.1l2.2-.1h14.6l2.2.1C144.9,50.9,145.2,51,145.5,51Z"/><path class="g" d="M120.2,77.2h30A10.84,10.84,0,0,1,161.1,88h0v1.4a10.926,10.926,0,0,1-10.9,10.9H109.3V88.1a10.861,10.861,0,0,1,10.9-10.9Z"/><path class="o" d="M155.1,85.9c0,.1-8.1.2-18,.2s-18-.1-18-.2,8.1-.2,18-.2S155.1,85.9,155.1,85.9Z"/><path class="o" d="M141.1,91.6c-.3,0-.6.1-.9.1H119.8a2.769,2.769,0,0,1-.9-.1,2.769,2.769,0,0,1,.9-.1h20.4C140.5,91.5,140.8,91.6,141.1,91.6Z"/><path class="o" d="M183.2,143.4H120a10.926,10.926,0,0,1-10.9-10.9h0v-1.3A10.926,10.926,0,0,1,120,120.3h52.3a10.926,10.926,0,0,1,10.9,10.9h0v12.2Z"/><path class="g" d="M171.2,128.8c0,.1-11.4.2-25.4.2s-25.4-.1-25.4-.2,11.4-.2,25.4-.2S171.2,128.7,171.2,128.8Z"/><path class="g" d="M171.2,134.3c0,.1-11.4.2-25.4.2s-25.4-.1-25.4-.2,11.4-.2,25.4-.2S171.2,134.2,171.2,134.3Z"/><path class="g" d="M120.2,163.4h30a10.926,10.926,0,0,1,10.9,10.9h0v1.3a10.926,10.926,0,0,1-10.9,10.9H109.3V174.3a10.925,10.925,0,0,1,10.9-10.9Z"/><path class="o" d="M154.3,171.8c0,.1-8.5.2-19.1.2s-19.1-.1-19.1-.2,8.5-.2,19.1-.2S154.3,171.7,154.3,171.8Z"/><path class="o" d="M140.7,177.3a3.4,3.4,0,0,1-1,.1H117.1a3.4,3.4,0,0,1-1-.1c.3,0,.7-.1,1-.1h22.6C140,177.2,140.3,177.3,140.7,177.3Z"/><text class="r" transform="translate(111.956 231.938)"><tspan x="0" y="0">Type a message</tspan></text><path class="m" d="M379.2,180.1l4.3,4.3a2.41,2.41,0,0,0,1.8.7,2.476,2.476,0,0,0,2.5-2.5h0a2.875,2.875,0,0,0-.7-1.8l-4.3-4.3a2.387,2.387,0,0,0-3.4-.1l-.1.1h0a2.41,2.41,0,0,0-.7,1.8A1.565,1.565,0,0,0,379.2,180.1Z"/><path class="s" d="M394.8,115a52.384,52.384,0,0,1-9.7,0A39.352,39.352,0,0,1,394.8,115Z"/><path class="t" d="M428.7,3.5c-1.7-5.2,1.4-23.8-2.7-23.8-5.2-.1-3.7,21-3.7,22.9s-2.7,1.9-2.6.2c.1-2.4,1-26.5-4.2-26.1-2.9.2-2.5,5.5-2.5,5.5s1.6,24.1-.9,24.2-3.3-13.9-3.5-18.9c-.2-4.7-2.2-6.6-4.4-5s-1.7,15.8-1.6,20.6.7,17.8-4.8,11.4-12-9.2-14.3-8.7-2.4,3.8,0,4.9c1.9.9,4.6,3.3,6.6,5.2a41.87,41.87,0,0,1,4,5.4,29.392,29.392,0,0,1,3.3,8,16.36,16.36,0,0,0,8.2,10.5h0l-.3,8.8,25.4-2.2.5-16.7c.3-12.8,2.5-21.3,3.8-28.9,2.1-12.1.6-12.5-.9-12.4C430.8-11.4,430.3,8.6,428.7,3.5Z"/><path class="u" d="M428.7,19.9a19.953,19.953,0,0,0-3.5.9,13.749,13.749,0,0,0-6.6,5.3,10.077,10.077,0,0,0-1.2,2.3l-.1.4-.3-.3a18.213,18.213,0,0,0-5.9-3.4c-1.6-.6-2.6-.8-2.6-.9a6.264,6.264,0,0,1,2.7.6,18.361,18.361,0,0,1,6.1,3.4l-.5.1a11.506,11.506,0,0,1,1.2-2.5,12.927,12.927,0,0,1,3.4-3.6,12.159,12.159,0,0,1,3.6-1.8,10.891,10.891,0,0,1,2.6-.5A2.045,2.045,0,0,1,428.7,19.9Z"/><path class="u" d="M425.1,37.7a16.37,16.37,0,0,1-6.1,1.7,17.223,17.223,0,0,1-6.4-.1c0-.2,2.9,0,6.3-.4S425.1,37.5,425.1,37.7Z"/><path class="l" d="M357.1,38.5s13.2,6.8,20.2,16.5,27.9,39.9,27.9,39.9l-3-45.7L434.6,45s9.4,46.1,11.6,62c2.1,14.9,1.2,29.6-13.4,37.6-17.2,9.4-36.7-3.3-43.2-8.1-8.1-6-22.9-15.8-22.9-15.8Z"/><path class="d" d="M340.8,32.7l-9.3-10.3-40.4-3.1-5.2,8.5L300,116.2l-6.3,89.4h52.6Z"/><g class="v"><path class="w" d="M296.1,184.3c1.4-1.5,3.7-3.5,5.7-3.6,14.6-.3,29.4-1.8,44-2.1l.6,26.9-7.1-3.3c-.4-3-.9-6.7-3.7-8-1.6-.8-3.4-.5-5.1-.1-5.3,1-10.5,2.4-15.8,2.7s-11-.4-15.4-3.4a8.966,8.966,0,0,1-3.7-4A4.562,4.562,0,0,1,296.1,184.3Z"/></g><path class="l" d="M331.5,22.4l25.9,16.8,5.5,18,5.3,56-5.8,57.4,10,35H346.3V191.8l-2.8-97.2-2.7-61.9Z"/><path class="x" d="M345.5,108a1.612,1.612,0,0,0,.4-.7,21.165,21.165,0,0,0,1.1-2.1c.4-.9.9-2.1,1.5-3.5.3-.7.5-1.5.8-2.2a18.285,18.285,0,0,0,.8-2.5c2.2-7.2,3.6-17.6,3.3-29.1,0-.9-.1-1.8-.1-2.6v-.1l-.1-.1-4.1-1.7.1.4,4-3.2.1-.1v-.1a35.265,35.265,0,0,0-1.9-11.6,81.359,81.359,0,0,0-3.1-8.7c-1-2.4-1.8-4.3-2.5-5.6-.3-.6-.5-1.1-.7-1.4-.1-.2-.2-.3-.3-.5.1.2.1.4.2.5l.6,1.5c.6,1.3,1.4,3.2,2.3,5.6s2,5.3,3,8.7a36.726,36.726,0,0,1,1.8,11.4l.1-.2-4.1,3.2-.3.3.4.2,4,1.7-.1-.2a22.6,22.6,0,0,1,.1,2.6c.3,11.4-1.1,21.8-3.2,29a18.289,18.289,0,0,1-.8,2.5c-.3.7-.5,1.6-.8,2.2-.6,1.4-1,2.6-1.5,3.5s-.8,1.6-1.1,2.2C345.7,107.5,345.6,107.8,345.5,108Z"/><path class="x" d="M363.7,144.5a1.884,1.884,0,0,0,.2-.8c.1-.5.3-1.3.5-2.2s.5-2.1.8-3.5.6-2.9.9-4.6.6-3.6.9-5.7.5-4.2.8-6.5c.4-4.6.7-9.7.7-15,0-5-.3-10-.8-15-.3-2.3-.5-4.5-.8-6.5s-.6-3.9-.9-5.7-.6-3.3-.9-4.6-.5-2.5-.8-3.5-.4-1.6-.6-2.2a2.353,2.353,0,0,0-.2-.8c0,.3.1.5.1.8.1.6.3,1.3.5,2.2s.5,2.1.7,3.5.6,2.9.8,4.6.6,3.6.8,5.6.5,4.2.8,6.5c.4,4.6.7,9.7.7,15s-.3,10.4-.7,15c-.2,2.3-.4,4.5-.7,6.5s-.5,3.9-.8,5.6-.6,3.3-.8,4.6-.5,2.5-.7,3.5a17.416,17.416,0,0,1-.5,2.2Z"/><path class="x" d="M357.4,191.4a9.732,9.732,0,0,0,1.1,2.3,35.443,35.443,0,0,0,3.5,5.1,37.325,37.325,0,0,0,4.4,4.5,11.6,11.6,0,0,0,2.1,1.6c-.6-.6-1.2-1.3-1.8-1.8a44.734,44.734,0,0,1-4.2-4.5,57.369,57.369,0,0,1-3.6-5C358.4,192.8,357.9,192.1,357.4,191.4Z"/><g class="v"><path class="w" d="M344.5,144.5c-2.7-1.4-6.1-.7-9,.4s-5.8,2.6-8.8,2.6c-4.2,0-10.1-1.6-12.3-5.1a48.06,48.06,0,0,1-5.3-13.1c-3.3-15.4-4.1-28.9-7.4-44.2-1.8-8.4-4.1-18-7.2-26-3-7.7-5.8-15.7-8.2-23.7.4,18,.8,36.1,3.6,54,1.8,11.5,4.6,22.8,6.1,34.3,1.3,9.9,1.6,19.8,2,29.7l9.4,11.5,25.8.5L346.7,148Z"/></g><path class="l" d="M250.9,37.7a31.673,31.673,0,0,0-19.6,22.7c-7.6,33.4-20.6,77.9-20.8,92.3-.3,18.3,7.7,30.8,18.2,33.1,8.2,1.8,83-2.3,83-2.3l3.5-31.2-60.6-5.6,8.3-46.3-8.2-64.2Z"/><path class="l" d="M254.7,36.2l16.8-6.8,19.1-10.3.2.6h0c-2.2,3.7-4.5,10.5-3.6,14.7L301.9,111l-3.3,56-4.8,38.6H245.6l17.5-41.2-8.6-77.3Z"/><path class="x" d="M263.4,95.7a.9.9,0,0,0-.1.5q-.15.6-.3,1.5c-.2,1.4-.6,3.2-1,5.5-.8,4.7-1.9,11-3.1,18.1s-2.2,13.4-3,18.1c-.4,2.3-.6,4.1-.9,5.5l-.2,1.5v.5a.9.9,0,0,0,.1-.5q.15-.6.3-1.5c.2-1.4.6-3.2,1-5.5.8-4.6,2-11,3.2-18.1s2.3-13.5,3-18.1c.4-2.3.6-4.1.9-5.5.1-.6.1-1.1.2-1.5A.44.44,0,0,1,263.4,95.7Z"/><path class="x" d="M281.4,24.4c0,.1,0,.1-.1.2s-.1.3-.2.6c-.1.5-.3,1.2-.5,2.2a73.706,73.706,0,0,0-1.3,8.2,88.387,88.387,0,0,0-.3,12.6c.2,4.8.7,10.1,1.4,15.7v.2h.2l5.5,1-.2-.3c-.3.8-.6,1.8-.9,2.7a34.576,34.576,0,0,0,.6,18.6A58.462,58.462,0,0,0,292,100c2.3,3.7,4.4,6.5,5.8,8.5l1.7,2.2.4.6.2.2c0-.1-.1-.1-.1-.2a2.092,2.092,0,0,0-.4-.6l-1.6-2.3c-1.4-2-3.4-4.9-5.6-8.6A57.463,57.463,0,0,1,286.1,86a33.491,33.491,0,0,1-.6-18.3,11.423,11.423,0,0,1,.9-2.6l.1-.3-.3-.1-5.5-1,.2.2c-.7-5.6-1.2-10.9-1.5-15.6a104.294,104.294,0,0,1,.2-12.5,73.511,73.511,0,0,1,1.1-8.2c.2-1,.4-1.7.5-2.2,0-.2.1-.4.1-.6C281.4,24.5,281.4,24.5,281.4,24.4Z"/><path class="j" d="M281.4,103V90.8s-.2-3,2.4-2.4,2.1,5.4,2.1,5.4.5,18.6-.6,18.4-1.5-1.6-1.5-1.6v-7.1Z"/><path class="x" d="M270.8,103.8a95.451,95.451,0,0,0,13.1,0A71.652,71.652,0,0,0,270.8,103.8Z"/><path class="x" d="M246.7,45a5.782,5.782,0,0,0,1.4.5c1.2.5,2.4,1,3.6,1.6a28.35,28.35,0,0,1,9.8,8.4,19.821,19.821,0,0,1,1.9,3.1,17.55,17.55,0,0,1,1.2,3.2,36.993,36.993,0,0,1,1,5.8c.1,1.7.2,3,.2,4v1.5a7.719,7.719,0,0,0,.2-1.5,26.7,26.7,0,0,0,0-4,29,29,0,0,0-.9-5.9,21.9,21.9,0,0,0-1.2-3.3,21.367,21.367,0,0,0-2-3.2,26.533,26.533,0,0,0-10.1-8.4,16.569,16.569,0,0,0-3.7-1.4A3.708,3.708,0,0,0,246.7,45Z"/><path class="x" d="M311.7,183.5v-.6a9.852,9.852,0,0,1,.2-1.7c.1-1.5.4-3.7.6-6.4.6-5.5,1.5-13.3,2.5-22.5l.2.3-22.5-1.9-38-3.4a19.51,19.51,0,0,0-11.1,2.2,14.523,14.523,0,0,0-2.6,1.7l-.6.5c-.1.1-.1.1-.2.1a16.55,16.55,0,0,1,3.4-2.5,19.809,19.809,0,0,1,11.2-2.4l38,3.2,22.5,2h.2v.2c-1.1,9.2-2,17-2.6,22.5l-.8,6.4a9.852,9.852,0,0,0-.2,1.7A1.421,1.421,0,0,0,311.7,183.5Z"/><path class="x" d="M295.4,184.3a5.852,5.852,0,0,1-.2-1.3c-.1-1.2-.2-2.4-.2-3.6a95.053,95.053,0,0,1,2.1-23.8,19.955,19.955,0,0,1,.9-3.5,6.47,6.47,0,0,1,.4-1.3,5.852,5.852,0,0,1-.2,1.3c-.2.9-.4,2.1-.7,3.5a115.416,115.416,0,0,0-1.6,11.8c-.4,4.6-.5,8.8-.5,11.9,0,1.5,0,2.7.1,3.6C295.5,183.4,295.4,183.9,295.4,184.3Z"/><path class="x" d="M304,174.5a1.7,1.7,0,0,1,.7-.1,3.157,3.157,0,0,1,1.9.7,3.052,3.052,0,0,1,1.3,2.8,3.83,3.83,0,0,1-2.1,3.1,3.427,3.427,0,0,1-3.6-.9,2.832,2.832,0,0,1-.7-3,3.369,3.369,0,0,1,1.1-1.7.908.908,0,0,1,.7-.3c-.2.2-.4.3-.6.5a2.6,2.6,0,0,0-.9,1.6,2.548,2.548,0,0,0,.7,2.5,2.954,2.954,0,0,0,3.1.7,3.192,3.192,0,0,0,1.9-2.6,2.544,2.544,0,0,0-1.1-2.4,3.805,3.805,0,0,0-1.7-.8C304.5,174.6,304.2,174.5,304,174.5Z"/><path class="x" d="M290.8,18.8l-.3.2-1,.6-3.7,2.1-14.3,7.9h0l-24,10.1a25.77,25.77,0,0,0-12.1,10,32.459,32.459,0,0,0-3.8,7.7,43.422,43.422,0,0,0-2.1,8.8h0c-4.4,19-9.5,40.8-14.4,64-1,5-2,9.9-3,14.8-.2,1.2-.5,2.4-.7,3.6s-.5,2.4-.6,3.6a43.474,43.474,0,0,0-.4,7.2,35.636,35.636,0,0,0,3.2,13.6,21.687,21.687,0,0,0,3.6,5.8,20.691,20.691,0,0,0,5,4.3,21.732,21.732,0,0,0,12.2,3l12.2-.2c7.8-.2,15.1-.4,21.8-.6l31.6-1.1,8.6-.3,2.2-.1h.8l-.8.1-2.2.1-8.6.4c-7.5.4-18.2.8-31.6,1.3-6.7.2-14,.5-21.8.7l-12.2.3a21.907,21.907,0,0,1-12.5-3,19.513,19.513,0,0,1-5.1-4.4,23.946,23.946,0,0,1-3.6-5.9,34.43,34.43,0,0,1-3.2-13.8,35.78,35.78,0,0,1,.4-7.3c.1-1.2.4-2.4.6-3.6s.4-2.4.7-3.6c.9-4.9,1.9-9.8,3-14.8,4.9-23.2,10-45,14.4-64h0a46.038,46.038,0,0,1,2.1-8.9,35.56,35.56,0,0,1,3.9-7.8,25.432,25.432,0,0,1,12.3-10.1l24.1-10h0l14.3-7.8,3.8-2,1-.5Z"/><rect class="c" width="22.9" height="7.1" transform="translate(351.8 99.1)"/><path class="c" d="M459.3,112.2l-76.1,81.1-74.2.5-1.7-3.4,73.1-79.2Z"/><path class="f" d="M387.4,111.2s4.9,0,6.4,1.7c1.7,2.1,5,6.7-2.2,18.5-2.9,4.7-16.9,21-22.7,37.7-5.4,15.6-2.9,20.7-2.9,20.7l53.5-1.7,1-1.9s23.3-63,17.1-75C434.8,105.7,387,109.2,387.4,111.2Z"/><path class="l" d="M428.4,186.5l-57.6.5c-.7-14.6,4.4-25.2,11.9-37.7,2.9-4.8,6.8-8.9,9.7-13.7a35.864,35.864,0,0,0,5.1-16.6c.1-2.3,0-4.9-1.4-6.7s-6.6-2-8.8-1a16.289,16.289,0,0,1,8.5-3.1c4.6-.4,42.7-.1,49.8-.1a20.883,20.883,0,0,1,5,.8c5.2,2.7,6.2,9.7,5.5,14.8-.7,4.8-3.7,9.3-7.4,14.4a35.2,35.2,0,0,0-3,4.5c-3.9,6.8-14.8,25.9-16.7,32.5A31.333,31.333,0,0,0,428.4,186.5Z"/><path class="x" d="M428.4,186.4l-13.9.1-26.5.2-11.1.1h-3.7a7.387,7.387,0,0,1-2.1,0h-.3s.1-1.1.1-1.2v-1.5a28.1,28.1,0,0,1,.1-2.9,51.564,51.564,0,0,1,1.9-11.1c2.1-7.3,5.8-14,9.7-20.4,2.1-3.5,4.8-6.7,7.2-10a39.262,39.262,0,0,0,5.7-10.2,36.1,36.1,0,0,0,2.3-11.3c.1-2.5-.3-5.9-2.9-7a9.857,9.857,0,0,0-3.8-.7c-.9,0-2.8-.1-3.5.5-.2.2-.1.2,0,.2.1-.1.2-.1.3-.2a7.457,7.457,0,0,1,1.2-.7,17.42,17.42,0,0,1,4.5-1.7c3.1-.7,6.5-.5,9.6-.5,9.9-.1,19.7,0,29.6,0l11.4.1a30.719,30.719,0,0,1,5.3.5c3,.6,5,3.7,5.9,6.4a19.516,19.516,0,0,1,.5,9.3c-.8,3.9-2.9,7.4-5.1,10.6-2,2.9-4.1,5.7-5.9,8.8-1.2,2.1-2.4,4.3-3.6,6.5-2.9,5.2-5.7,10.4-8.4,15.7-2.3,4.5-4.5,9.1-4.8,14.2a27.439,27.439,0,0,0,.2,6.4c0,.2.3.1.2-.1a27.706,27.706,0,0,1,2.1-15.3c2.3-5.1,4.9-10.1,7.6-15.1,2.5-4.5,5-9,7.5-13.4,3.7-6.5,9.7-12.1,10.6-19.8.5-4.9-.6-12-5.7-14.2a14.694,14.694,0,0,0-5.5-.8h-4.2c-9.7-.1-19.4-.1-29.1-.1-4.2,0-8.4,0-12.5.1-3.8.1-7.4.4-10.8,2.4-.4.3-.9.6-1.3.9-.1.1,0,.2.1.2a10.864,10.864,0,0,1,6.9-.1c3,1,3.4,4.6,3.2,7.4a37.015,37.015,0,0,1-6.1,18.5c-1.8,2.7-3.8,5.2-5.8,7.8a79.442,79.442,0,0,0-5,7.8,85.484,85.484,0,0,0-7.2,15.3,51.449,51.449,0,0,0-2.7,19.1c0,.1,0,.1.1.1h0l19.5-.2,31-.3,7.1-.1c.1,0,.1,0,.2-.1s.1-.2-.1-.2Z"/><path class="f" d="M425,174.5c0,.1-10.1.3-22.7.3s-22.7-.1-22.7-.3,10.2-.3,22.7-.3S425,174.3,425,174.5Z"/><path class="f" d="M426.3,166.9c0,.1-10.1.3-22.7.3s-22.7-.1-22.7-.3,10.2-.3,22.7-.3S426.3,166.7,426.3,166.9Z"/><path class="f" d="M432.4,158.8c0,.1-10.2.3-22.7.3s-22.7-.1-22.7-.3,10.1-.3,22.7-.3S432.4,158.6,432.4,158.8Z"/><path class="f" d="M436.1,151.3c0,.1-10.1.3-22.7.3s-22.7-.1-22.7-.3,10.2-.3,22.7-.3S436.1,151.2,436.1,151.3Z"/><path class="f" d="M438.6,144.5c0,.1-10.1.3-22.7.3s-22.7-.1-22.7-.3,10.1-.3,22.7-.3S438.6,144.4,438.6,144.5Z"/><path class="f" d="M444.8,135.6c0,.1-10.1.3-22.7.3s-22.7-.1-22.7-.3,10.2-.3,22.7-.3S444.8,135.4,444.8,135.6Z"/><path class="f" d="M450.6,127c0,.1-10.1.3-22.7.3s-22.7-.1-22.7-.3,10.2-.3,22.7-.3S450.6,126.9,450.6,127Z"/><path class="f" d="M450.2,118.9c0,.1-10.1.3-22.7.3s-22.7-.1-22.7-.3,10.1-.3,22.7-.3S450.2,118.7,450.2,118.9Z"/><path class="s" d="M380.4,111.2c.1.1.2.1.3.2l.9.7,3.4,2.8.1.1-.1.1c-6.2,6.8-19.6,21.2-35.2,37.9-10.7,11.8-21.1,21.9-28.6,29.1-3.8,3.6-6.8,6.5-8.9,8.6l-2.5,2.3-.6.6-.2.2.2-.2.6-.6,2.4-2.4,8.8-8.7c7.4-7.4,17.7-17.5,28.5-29.2,15.6-16.7,29.1-31.1,35.4-37.7v.2l-3.4-2.9-.9-.8C380.5,111.4,380.5,111.3,380.4,111.2Z"/><path class="t" d="M315.1,155.9H326s7.3-6.4,9-6.9c4.1-.9,8.3-1.6,12.5-2.1l-6.1,6.7h0c-1.4,1.5-4,2.9-2.5,2.9h11.3s11.5-5.5,13.3-4.5c1.4.9,1.9,2.4.5,4.5s-11.6,7.2-12.8,7.6l-3.3,1,3.1,1,14.7-5.1c1-.2,2.3-.3,2.7.2a2,2,0,0,1,0,2.7l-.1.1h0a57.037,57.037,0,0,1-6.7,5.2s2.4,3.5.4,5.2-7.6,7-7.6,7a8.253,8.253,0,0,1-2.3,4.3c-1.7,1.4-21,1.4-22.4,1.4s-9.1-4.5-9.1-4.5l-8.5-.6Z"/><path class="u" d="M348.7,174.7a7.613,7.613,0,0,0,2.1.3,5.867,5.867,0,0,0,2.3-.4,19.647,19.647,0,0,0,2.5-1.3c1.7-1.1,3.2-2.1,4.2-2.8a10.916,10.916,0,0,0,1.7-1.3,11.4,11.4,0,0,0-1.9,1c-1.1.7-2.6,1.6-4.3,2.7-.8.5-1.6.9-2.4,1.3a7.85,7.85,0,0,1-2.2.5Z"/><path class="u" d="M347.8,181.9a2.751,2.751,0,0,0,1.5.8,5.126,5.126,0,0,0,4-.7,19.1,19.1,0,0,0,3.2-2.4c.7-.7,1.1-1.2,1.1-1.2-1.5,1.2-3,2.2-4.5,3.2a5.95,5.95,0,0,1-3.7.8A4.284,4.284,0,0,1,347.8,181.9Z"/><path class="u" d="M342.4,166a10.123,10.123,0,0,0,3-.2,7.713,7.713,0,0,0,2.9-1c-1,.1-2,.3-3,.5A13.654,13.654,0,0,0,342.4,166Z"/><path class="x" d="M268.7-50.6A21.783,21.783,0,0,0,239-59.1c-.1,0-.1.1-.2.1-.1.1-.2.1-.3.2-4.3,2.5-7.9,7-7.6,12,.3,4.7,3.8,8.5,7.1,11.8-5.3,2.2-7.9,8.9-6.2,14.3s7.1,9.2,12.8,9.8,11.4-1.9,15.5-5.9a31.3,31.3,0,0,0,8.1-14.8"/><path class="x" d="M250.7-38.5a9.474,9.474,0,0,1-2.9.7A13.5,13.5,0,0,1,233-48.9a15.918,15.918,0,0,1,4.1-13.8,18.377,18.377,0,0,1,13.5-5.2,16.7,16.7,0,0,1,11,4.5,10.471,10.471,0,0,1,3.2,7.3,8.2,8.2,0,0,1-.2,2.2,1.421,1.421,0,0,1-.2.6l-.1.2a9.467,9.467,0,0,0,.2-2.9,11.228,11.228,0,0,0-3.3-7.1,15.751,15.751,0,0,0-10.7-4.3,17.394,17.394,0,0,0-13.1,5.1,15.54,15.54,0,0,0-4,13.3,13.3,13.3,0,0,0,2.5,5.7A13.725,13.725,0,0,0,247.6-38,18.122,18.122,0,0,0,250.7-38.5Z"/><path class="s" d="M257.2-34.1a1.612,1.612,0,0,1-.7.4,7.218,7.218,0,0,1-2,.9,16.654,16.654,0,0,1-3.2.8,18.078,18.078,0,0,1-8-.7,11.37,11.37,0,0,1-3-1.3,7.607,7.607,0,0,1-1.9-1.2q-.6-.45-.6-.6c0-.1,1,.6,2.6,1.4a18.155,18.155,0,0,0,3,1.1,20.492,20.492,0,0,0,7.8.6,15.545,15.545,0,0,0,3.1-.7C256.1-33.7,257.2-34.2,257.2-34.1Z"/><path class="s" d="M230.9-46a5.638,5.638,0,0,1,.4-1.2,7.052,7.052,0,0,1,2.1-2.7,9.822,9.822,0,0,1,4.9-1.6,22.237,22.237,0,0,1,6.3.3,33.172,33.172,0,0,1,10.7,3.7,28.963,28.963,0,0,1,2.9,1.9,3.915,3.915,0,0,1,1,.8c-.4-.2-.7-.4-1.1-.6-.7-.4-1.7-1-3-1.7a35.722,35.722,0,0,0-10.6-3.5,20.859,20.859,0,0,0-6.1-.3,9.667,9.667,0,0,0-4.7,1.5,7.211,7.211,0,0,0-2.1,2.5C231.3-46.8,231.2-46.4,230.9-46Z"/><path class="s" d="M261.5-26a.367.367,0,0,1-.1.3c-.1.2-.3.5-.5.9a11.629,11.629,0,0,1-2.5,2.9,15.229,15.229,0,0,1-4.8,3.1,18.1,18.1,0,0,1-6.9,1.4,16.491,16.491,0,0,1-6.9-1.5,11.936,11.936,0,0,1-4.5-3.5,8.8,8.8,0,0,1-1.7-3.5,4.1,4.1,0,0,1-.1-1.1v-.4s.1.5.3,1.4a8.193,8.193,0,0,0,1.8,3.3,11.886,11.886,0,0,0,4.4,3.3,17.3,17.3,0,0,0,13.4.1,14.952,14.952,0,0,0,4.8-3A23.541,23.541,0,0,0,261.5-26Z"/><path class="s" d="M263.4-20.8a6.885,6.885,0,0,1-1.1,1.3,25.722,25.722,0,0,1-3.3,3.3c-.8.7-1.6,1.4-2.5,2.1A15.977,15.977,0,0,1,245-10.4a14.926,14.926,0,0,1-8.1-2.8,14.541,14.541,0,0,1-4.2-5.6,14.729,14.729,0,0,1-1.1-4.6v-1.3a.6.6,0,0,1,.1-.4v.4a5.7,5.7,0,0,0,.1,1.3A16.9,16.9,0,0,0,233-19a14.555,14.555,0,0,0,4.2,5.3,14.548,14.548,0,0,0,7.8,2.6,17.22,17.22,0,0,0,8.1-1.5,20.451,20.451,0,0,0,3.1-2c.9-.7,1.8-1.4,2.5-2,1.5-1.3,2.6-2.4,3.4-3.2A11.318,11.318,0,0,0,263.4-20.8Z"/><path class="j" d="M271.8-51.2l1.5,1.2c-.6-2.5-3.4-4-5.9-3.8a8.373,8.373,0,0,0-6.1,4.2,20.59,20.59,0,0,0-2.5,7.2c-.8,4.2-1.2,8.7.5,12.6s6,7,10.1,6,6.4-5.5,7-9.7A23.461,23.461,0,0,0,271.8-51.2Z"/><path class="x" d="M266.1-32.2a6.951,6.951,0,0,1-4,.9,6.71,6.71,0,0,1-2.8-.6c-.7-.3-1-.8-.9-.9a3.128,3.128,0,0,0,1,.5,8.423,8.423,0,0,0,2.7.4A27.962,27.962,0,0,0,266.1-32.2Z"/><path class="x" d="M268.1-39.6a19.287,19.287,0,0,1-4.8.1,25.922,25.922,0,0,1-4.8-.4,25.673,25.673,0,0,1,4.8-.1A25.923,25.923,0,0,1,268.1-39.6Z"/><path class="x" d="M266.5-47.5c0,.2-1.5,0-3.2-.2a8.129,8.129,0,0,0-2.2.1c-.5.1-.9.3-.9.2s.2-.3.8-.6a4.454,4.454,0,0,1,2.3-.3A11.561,11.561,0,0,1,266.5-47.5Z"/><path class="x" d="M276.7-67.6c-.1-4.2,3.8-7.4,7.7-9s8.2-2.1,11.7-4.4c3.1-2.1,5.1-5.3,7.8-7.9a25.834,25.834,0,0,1,36.4-.3l.1.1A24.975,24.975,0,0,1,347.3-77c1.5,6,.5,13-4.2,17-5.5,4.6-13.6,3.6-20.5,2.2s-14.9-2.8-20.8,1.3c-3.5,2.5-5.5,6.5-7.7,10.2s-4.9,7.5-8.9,8.9-9.6-1-9.8-5.3"/><path class="x" d="M276.9-65.3c.5,3.5-2.1,6.7-4.6,9.1s-5.4,5.1-5.8,8.6c-.5,4.1,2.5,8.1,1.6,12.2-.5,2.6-2.5,4.6-3.8,6.9a14.947,14.947,0,0,0-.8,10.8c1,3.5,2.7,11.4,5.2,14.2,6.8,7.6,17.6,14.2,27.6,16.4s20.3,2.3,30.4,1.7c8.3-.5,17.9-.1,24.9-11.6,3.6-5.9,5.4-13.8,7.3-20.5,1.6-5.8,3.1-11.9,1.4-17.6-1-3.3-3-6.3-4-9.6-1.2-4.2-.8-8.6-1.3-13a29.829,29.829,0,0,0-32.9-26.2,30.737,30.737,0,0,0-9.4,2.7"/><path class="t" d="M291.1,30.1Z"/><path class="t" d="M351-50.9c-.8-11.9-8.7-26.6-20.6-25.3l-37.2,9.5a6.972,6.972,0,0,0-6.2,7.1l4.1,87.7a12.843,12.843,0,0,0,1,4.3C294.9,38.5,304,54,324,47.7c4.9-1.5,7.1-6.9,8.1-12.4,0-.6.3-1.2.3-1.9a56.208,56.208,0,0,0,.1-12.3c.1-7.2.1-10.2.1-10.1S347.9,8.4,351-11.5C352.4-21.4,351.9-37.6,351-50.9Z"/><path class="t" d="M291.2,30.5"/><path class="x" d="M345-37.9a2.628,2.628,0,0,1-2.5,2.6,2.443,2.443,0,0,1-2.6-2.2v-.1a2.628,2.628,0,0,1,2.5-2.6,2.6,2.6,0,0,1,2.6,2.3Z"/><path class="x" d="M347.5-42.4c-.3.3-2.3-1.1-5-1.1s-4.8,1.4-5.1,1.1c-.1-.1.2-.8,1-1.4a7.322,7.322,0,0,1,4-1.3,6.6,6.6,0,0,1,4,1.3C347.4-43.2,347.7-42.6,347.5-42.4Z"/><path class="x" d="M317.8-37.9a2.628,2.628,0,0,1-2.5,2.6,2.443,2.443,0,0,1-2.6-2.2v-.1a2.628,2.628,0,0,1,2.5-2.6,2.6,2.6,0,0,1,2.6,2.3Z"/><path class="x" d="M320.5-41.9c-.3.3-2.3-1.1-5-1.1s-4.8,1.4-5.1,1.1c-.1-.1.2-.8,1-1.4a7.387,7.387,0,0,1,4.1-1.3,6.6,6.6,0,0,1,4,1.3C320.3-42.6,320.6-42,320.5-41.9Z"/><path class="x" d="M330.5-21.5c0-.2,1.7-.5,4.5-.8.7-.1,1.4-.2,1.5-.7a3.144,3.144,0,0,0-.5-2.1q-1.05-2.55-2.1-5.4c-2.9-7.6-5-13.9-4.7-14s2.9,6,5.8,13.6c.7,1.9,1.4,3.7,2,5.4a4.5,4.5,0,0,1,.4,2.8,1.573,1.573,0,0,1-1.1,1,5.019,5.019,0,0,1-1.2.2C332.2-21.3,330.5-21.3,330.5-21.5Z"/><path class="u" d="M332.5,11.1A51.139,51.139,0,0,1,305.8,4s6.7,13.8,26.7,11.9Z"/><path class="u" d="M329.3-14.9a5.15,5.15,0,0,0-4.5-1.8,4.428,4.428,0,0,0-3.1,1.7,3.05,3.05,0,0,0-.2,3.3,3.248,3.248,0,0,0,3.6.9,11.258,11.258,0,0,0,3.5-2.1,3.043,3.043,0,0,0,.8-.8.908.908,0,0,0,0-1"/><path class="x" d="M322.4-19.6c.5,0,.5,3,3,5.1s5.7,1.8,5.8,2.2c0,.2-.7.6-2,.6a7.4,7.4,0,0,1-4.8-1.7,6.568,6.568,0,0,1-2.3-4.2C321.9-18.8,322.2-19.6,322.4-19.6Z"/><path class="x" d="M321.7-46.7c-.3.8-3,.4-6.2.8s-5.8,1.3-6.3.6c-.2-.3.3-1,1.3-1.8a10.965,10.965,0,0,1,9.5-1.1C321.2-47.6,321.8-47,321.7-46.7Z"/><path class="x" d="M346.5-50.4c-.5.6-2.4,0-4.7,0s-4.2.4-4.6-.2c-.2-.3.1-.9,1-1.5a6.631,6.631,0,0,1,7.5.2C346.4-51.3,346.7-50.7,346.5-50.4Z"/><path class="x" d="M279.3-1.2a17.669,17.669,0,0,0,20.8-13.9h0a18.2,18.2,0,0,0,.2-5.7c-.6-4.9-3.3-9.9-1.6-14.5,2.2-6.1,10.8-8,13.1-14.1,1.3-3.6.1-7.7,1.6-11.2,1.4-3.3,4.9-5.2,8.2-6.4s7-2,9.8-4.2,4.6-6.3,2.8-9.4A187.615,187.615,0,0,0,290.6-70c-3.2,1.2-6.7,2.7-8.6,5.6-2,3.1-1.9,7-1.8,10.7.8,17.9,1.7,35.8,2.5,53.7"/><path class="s" d="M280.5,5.7c-.1-.1-.2-.1-.3-.2l-.9-.7q-1.2-.9-3.3-2.7a36.308,36.308,0,0,1-4.7-4.9,18,18,0,0,1-3.7-8.2,12.443,12.443,0,0,1,2.6-10.5,34.7,34.7,0,0,1,4.6-4,11.607,11.607,0,0,0,3.6-4.9c1.5-4.1.8-8.8,1.4-13.6a27.623,27.623,0,0,1,5.6-13.7,18.351,18.351,0,0,1,5.9-4.8,33.772,33.772,0,0,1,7-2.3,17.39,17.39,0,0,0,6.1-3,26.209,26.209,0,0,0,4.5-4.9c2.5-3.6,4.4-7.3,6.7-10.5a19.476,19.476,0,0,1,3.9-4.2,15.792,15.792,0,0,1,4.6-2.5,10.032,10.032,0,0,1,8.9.9,7.772,7.772,0,0,1,3.1,6,6.022,6.022,0,0,1-1.2,4.1,3.044,3.044,0,0,1-.8.8c-.2.2-.3.2-.3.2l.3-.3a2.7,2.7,0,0,0,.7-.8,5.754,5.754,0,0,0,1-4,7.976,7.976,0,0,0-3.1-5.6,9.544,9.544,0,0,0-8.4-.7,14.753,14.753,0,0,0-4.4,2.5,24.648,24.648,0,0,0-3.8,4.1c-2.3,3.1-4.1,6.9-6.7,10.5a24.717,24.717,0,0,1-4.6,5.1,17.531,17.531,0,0,1-6.4,3.2,34.06,34.06,0,0,0-6.8,2.3A16.676,16.676,0,0,0,286-57a26.666,26.666,0,0,0-5.5,13.3c-.6,4.6.1,9.4-1.5,13.8a11.242,11.242,0,0,1-3.9,5.2,43.059,43.059,0,0,0-4.6,3.9,11.861,11.861,0,0,0-2.5,9.9,18.024,18.024,0,0,0,3.5,8,43.236,43.236,0,0,0,4.5,5c1.4,1.3,2.5,2.2,3.2,2.9A1.709,1.709,0,0,1,280.5,5.7Z"/><path class="x" d="M361.4-25.5a7.608,7.608,0,0,0,1.2-1.9,8.136,8.136,0,0,0-1.1-5.9c-.7-1.1-1.6-2.2-2.6-3.5a10.722,10.722,0,0,1-2.3-4.5,14.565,14.565,0,0,1-.2-5.5c.2-1.9.6-3.8.8-5.8a23.183,23.183,0,0,0-1.3-11.1,24.2,24.2,0,0,0-4.8-7.8,25.534,25.534,0,0,0-4.7-4c-.6-.4-1.3-.8-2-1.2a.764.764,0,0,1,.5.2,10.929,10.929,0,0,1,1.5.8,26.251,26.251,0,0,1,4.9,3.9,27.147,27.147,0,0,1,5,7.9,22.983,22.983,0,0,1,1.4,11.3c-.2,2-.6,3.9-.9,5.8a14.045,14.045,0,0,0,.2,5.4,11.719,11.719,0,0,0,2.2,4.3c.9,1.1,1.7,2.3,2.5,3.5a7.322,7.322,0,0,1,1,6.1,3.766,3.766,0,0,1-.9,1.5A.7.7,0,0,1,361.4-25.5Z"/><path class="x" d="M542.7,205.9c-189.5,0-342.6.1-342.6.3s153.1.3,342.6.3Z"/><rect class="y" width="85.5" height="98" transform="translate(447.9 147)"/><path class="x" d="M533.4,245v-7.2c0-4.6,0-11.4-.1-20,0-17.2-.1-41.6-.1-70.9l.2.2H447.9l.3-.3v98l-.2-.2,62,.1,17.3.1h4.6l1.5.2-1.4-.1H510.2L448,245h-.2V146.5h86v.2c0,29.3-.1,53.8-.1,71,0,8.6,0,15.3-.1,20v6.5C533.5,244.5,533.5,244.8,533.4,245Z"/><path class="z" d="M465.4,181.7c1-1.6,1.7-8.1,3.1-7.7,1.7.5-.7,7.4-.9,8-.1.2.1.5.3.6s.5-.1.6-.3h0c.2-.8,2.1-8.9,3.8-8.3.9.3.3,2.1.3,2.1s-2.8,7.9-1.9,8.2,2.4-4.4,2.9-6,1.3-2,1.9-1.3-.9,5.5-1.3,7-1.9,5.9.5,4.3,4.9-2,5.6-1.6a.926.926,0,0,1,.3,1.2.842.842,0,0,1-.7.4,15.328,15.328,0,0,0-2.7,1.1,8.621,8.621,0,0,0-1.8,1.4,10.765,10.765,0,0,0-1.8,2.4,5.846,5.846,0,0,1-3.7,2.8h0l-.7,3-8.3-3.1,1.4-5.6a56.006,56.006,0,0,0,1.4-10c.4-4.2,1-4.2,1.4-4.1C466,176.5,464.4,183.2,465.4,181.7Z"/><path class="aa" d="M463.9,187.2c.4.2.7.4,1.1.6a4.63,4.63,0,0,1,1.7,2.4,2.92,2.92,0,0,1,.2.9v.1l.1-.1a8.648,8.648,0,0,1,2.3-.6c.6-.1,1,0,1-.1a3.4,3.4,0,0,0-1-.1,5.932,5.932,0,0,0-2.3.5l.1.1a2.92,2.92,0,0,0-.2-.9,10.932,10.932,0,0,0-.8-1.5,2.836,2.836,0,0,0-1-.9,2.01,2.01,0,0,0-.8-.4C464,187.2,463.9,187.1,463.9,187.2Z"/><path class="aa" d="M463.4,193.5a4.532,4.532,0,0,0,1.9,1.1,5.45,5.45,0,0,0,2.2.5,17.232,17.232,0,0,0-2.1-.7C464.3,194,463.5,193.4,463.4,193.5Z"/><path class="i" d="M461,234.9a9,9,0,0,0,4.9-2.1l13.3-11.3-.1,13-2.6.2.7,9.7h41.3v-.2a14.94,14.94,0,0,0,4.7-9c1-6.4,1.4-16.9,2.3-24.3.6-5.2-.5-12-5.2-14.4l-3.5-1.4h0l-11.3-4.4-14.5.7-9.7,2.7c-2.7,1-5,4.2-6.7,6.6l-8.1,11.2c.1-1.8,3.4-12.9,3.6-13.4l-9.9-4.1S450,217,451.4,226.8C452.7,234.8,461,234.9,461,234.9Z"/><path class="x" d="M510.2,157.3a9.919,9.919,0,0,1,2.7,9.8v.1a32.991,32.991,0,0,1-6,11.8,1.016,1.016,0,0,1-1,.5c-.4-.1-.3-.4-.3-.7a26.7,26.7,0,0,1,.4-6.9,17.824,17.824,0,0,0-.2-6.9,6.749,6.749,0,0,0-4.6-4.8,7.03,7.03,0,0,0-4.9.9c-1.5.8-2.9,1.9-4.3,2.8a9.29,9.29,0,0,1-4.8,1.7,4.593,4.593,0,0,1-4.2-2.4,2.786,2.786,0,0,1,1.5-3.8c.1-.1.3-.1.4-.2-1.5-.2-2.3-1.7-2.4-3.2,0,0,.1-2.6,3.9-2.4,0,0,.5-3.9,4.3-2.5,3.4,1.3,3.8,2.3,9.2,1.1,0,0,7.2-1.8,9.5,4.5Z"/><path class="z" d="M509.3,167.7,506,193.4a7.745,7.745,0,0,1-8.6,6.7.6.6,0,0,1-.4-.1h0a7.775,7.775,0,0,1-6.3-8.6c.3-1.9.5-3.5.5-3.8,0,0-6.5-1.5-6.1-8,.2-3.2,1.1-9.6,2-15.5A12.249,12.249,0,0,1,500,153.7h.6C507.3,154.7,510.3,161,509.3,167.7Z"/><path class="aa" d="M491.1,187.6a15.571,15.571,0,0,0,8.7-1.8s-2.3,4.6-8.8,3.5Z"/><path class="x" d="M487.8,169.1a6.279,6.279,0,0,1,1.9-.3c1.1.1,1.7.6,1.8.5s0-.3-.3-.5a3.946,3.946,0,0,0-1.5-.6,2.822,2.822,0,0,0-1.5.4C487.9,168.8,487.8,169,487.8,169.1Z"/><path class="x" d="M497.5,169.6a5.663,5.663,0,0,1,1.8-.3c1,.1,1.7.6,1.8.5s0-.3-.3-.5a3.946,3.946,0,0,0-1.5-.6,2.822,2.822,0,0,0-1.5.4C497.6,169.3,497.4,169.6,497.5,169.6Z"/><path class="x" d="M493.9,175.6a9.362,9.362,0,0,0-1.6-.4c-.2,0-.5-.1-.5-.3a1.854,1.854,0,0,1,.2-.7l.9-1.9a43.983,43.983,0,0,0,2.1-5,27.3,27.3,0,0,0-2.5,4.8c-.3.7-.6,1.3-.9,1.9a1.8,1.8,0,0,0-.2,1,.781.781,0,0,0,.4.4.6.6,0,0,0,.4.1C492.8,175.5,493.3,175.6,493.9,175.6Z"/><path class="x" d="M496.8,176.5c-.2,0-.2,1.1-1.2,1.8s-2.1.5-2.2.7.2.2.7.3a2.383,2.383,0,0,0,1.8-.5,2.523,2.523,0,0,0,1-1.5C497,176.7,496.8,176.5,496.8,176.5Z"/><path class="x" d="M498,164.4c.1.3,1.1.2,2.3.4s2.1.6,2.3.4-.1-.4-.4-.7a3.63,3.63,0,0,0-1.7-.7,3.672,3.672,0,0,0-1.8.1C498.2,164.1,498,164.3,498,164.4Z"/><path class="x" d="M488.8,164.6c.2.2.9,0,1.7.1s1.5.3,1.7,0,0-.4-.3-.6a2.389,2.389,0,0,0-1.4-.5,2.3,2.3,0,0,0-1.4.4Q488.65,164.45,488.8,164.6Z"/><path class="z" d="M508.4,172.5c.1,0,4.6-1,4.1,3.4s-4.8,3.1-4.8,3S508.4,172.5,508.4,172.5Z"/><path class="aa" d="M509.3,177.4c.1.1.1.1.2.1a1.268,1.268,0,0,0,.6.1,2.087,2.087,0,0,0,1.1-1.6,1.986,1.986,0,0,0-.1-1.1,1.157,1.157,0,0,0-.5-.7.365.365,0,0,0-.5.2h0c-.1.1,0,.2-.1.2s-.1-.1,0-.3c0-.1.1-.2.2-.3a.6.6,0,0,1,.4-.1.969.969,0,0,1,.7.8,2.953,2.953,0,0,1,.2,1.3,2.072,2.072,0,0,1-1.3,1.8.844.844,0,0,1-.7-.2C509.3,177.5,509.2,177.4,509.3,177.4Z"/><path class="x" d="M485.7,162.7a9.2,9.2,0,0,0,8.5-1.3c1.7-1.2,3-3.1,5.1-3.6a5.171,5.171,0,0,1,4,.8,10.366,10.366,0,0,1,2.9,3c-1.5,3.2-.9,7-.3,10.5a1.606,1.606,0,0,0,.5,1.1,1.378,1.378,0,0,0,1.8-.3,6.187,6.187,0,0,0,1.4-2.8,19.36,19.36,0,0,0,.5-7.2,12.861,12.861,0,0,0-3-6.6,11.8,11.8,0,0,0-8.1-3.7,14.883,14.883,0,0,0-8.7,2.4,8.618,8.618,0,0,0-3,3"/><path class="aa" d="M501.1,172.9c.1,0,.1,0,.1-.1h0c0-.1,0-.1-.1-.1h0c-.1,0-.1,0-.1.1h0Z"/><path class="aa" d="M499.2,172.3c.1,0,.1,0,.1-.1s0-.1-.1-.2-.1,0-.1.1S499.1,172.3,499.2,172.3Z"/><path class="aa" d="M497.9,172.2c.1,0,.1,0,.1-.1s0-.2-.1-.2-.1.1-.2.2S497.8,172.2,497.9,172.2Z"/><path class="aa" d="M500,174c.1,0,.1,0,.1-.1s0-.1-.1-.1-.1,0-.1.1Z"/><path class="aa" d="M498.3,173.5c.1,0,.1,0,.1-.1s0-.1-.1-.1-.1,0-.1.1h0C498.2,173.5,498.2,173.5,498.3,173.5Z"/><path class="aa" d="M489.2,171.7c.1,0,.1,0,.1-.1s0-.1-.1-.1h0c-.1,0-.1,0-.1.1h0C489.1,171.7,489.1,171.7,489.2,171.7Z"/><path class="aa" d="M487.9,171.5c.1,0,.1,0,.1-.1s0-.1-.1-.1c-.1.1-.1.2,0,.2Z"/><path class="aa" d="M490.4,171.9c.1,0,.1,0,.1-.1h0c0-.1,0-.1-.1-.1s-.1,0-.1.1Z"/><path class="aa" d="M489.3,173.1c.1,0,.1,0,.2-.1h0v-.2h-.2c-.1.2,0,.3,0,.3Z"/><path class="aa" d="M488.2,172.8c.1,0,.1,0,.1-.1h0c0-.1,0-.1-.1-.1s-.1,0-.1.1h0c0,.1,0,.1.1.1Z"/><path class="s" d="M495.2,157.7a4.1,4.1,0,0,1-1.6,1.6,6.753,6.753,0,0,1-9.3-1.9l-.3-.6a4.282,4.282,0,0,1-.6-2.2c.3.7.6,1.4.9,2a6.774,6.774,0,0,0,9.1,2.4C494.6,158.3,495.1,157.6,495.2,157.7Z"/><path class="s" d="M509.3,158.8a5.5,5.5,0,0,0-2-2.3,5.614,5.614,0,0,0-3.1-.9,13.974,13.974,0,0,0-4.1.5c-1.4.3-2.7.6-4.1.8a6.921,6.921,0,0,1-5.5-1.6,1.794,1.794,0,0,1-.5-.7,6.811,6.811,0,0,0,2.6,1.5,7.393,7.393,0,0,0,3.3.2,27.034,27.034,0,0,0,4.1-.8,20.073,20.073,0,0,1,4.2-.5,5.681,5.681,0,0,1,3.3,1.1,3.353,3.353,0,0,1,1.5,1.8C509.4,158.5,509.4,158.8,509.3,158.8Z"/><path class="s" d="M511.5,164.2a4.968,4.968,0,0,1-5.3-2.5c.8.6,1.6,1.2,2.4,1.7C509.6,163.7,510.5,164,511.5,164.2Z"/><path class="s" d="M510.9,167.2c0,.1-.4,0-1-.1a5.838,5.838,0,0,1-2.2-.8,3.529,3.529,0,0,1-1.6-1.8c-.2-.6-.2-1-.1-1s.2.3.5.8a5.356,5.356,0,0,0,1.5,1.5,7.218,7.218,0,0,0,2,.9C510.6,166.9,510.9,167.1,510.9,167.2Z"/><path class="x" d="M479.3,234.6c-.1,0-.1-6.6-.1-14.7s0-14.7.1-14.7.1,6.6.1,14.7S479.3,234.6,479.3,234.6Z"/><path class="x" d="M520.4,199.5h-2A8.6,8.6,0,0,0,514,201a9.48,9.48,0,0,0-3.1,3.5,13.359,13.359,0,0,0-.7,1.8.749.749,0,0,1,.1-.5,5.782,5.782,0,0,1,.5-1.4,9.049,9.049,0,0,1,3.1-3.6,8.944,8.944,0,0,1,4.5-1.5,7.568,7.568,0,0,1,1.5.1A.44.44,0,0,0,520.4,199.5Z"/><path class="x" d="M466.5,210.4v2.3c0,1.4.3,3.4.4,5.6a10.407,10.407,0,0,1-1,5.5,7.1,7.1,0,0,1-1,1.4,1,1,0,0,1-.5.4,6.405,6.405,0,0,0,1.3-1.9,11.084,11.084,0,0,0,1-5.4c-.1-2.2-.4-4.1-.3-5.6a9.7,9.7,0,0,1,.1-1.7v-.6Z"/><path class="z" d="M476.6,236l.8,8.4h-4l-3.5-.1a26.73,26.73,0,0,1-4,.1h-.2c-.2,0-.4-.1-.6-.1h0a.849.849,0,0,1-.7-.8c.2-1.2.9-1.3.9-1.3h.4v-.1h-1.4s-1.4-.2-1.3-.9c.2-1.2.9-1.3.9-1.3l1.2-.1h-1.5s-1.4-.2-1.3-.9c.2-1.2.9-1.3.9-1.3l1-.1H463s-1.4-.2-1.3-.9c.2-1.2.9-1.3.9-1.3s2.2-.2,3.7-.2c0,0,1.7-1.5,2.4-1.5,1,.1,6.9,2.3,6.9,2.3Z"/><path class="aa" d="M469.2,241.9a13.551,13.551,0,0,1-2,.2,6.729,6.729,0,0,1-2-.1,13.551,13.551,0,0,1,2-.2C467.8,241.8,468.5,241.9,469.2,241.9Z"/><path class="aa" d="M469.2,239.5a34.967,34.967,0,0,1-5.6.2A51.479,51.479,0,0,1,469.2,239.5Z"/><g class="ab"><path class="aa" d="M469,237.1a34.967,34.967,0,0,1-5.6.2A51.479,51.479,0,0,1,469,237.1Z"/></g><path class="aa" d="M465.5,234.8a2.768,2.768,0,0,0,.9.1l2.2.1,2.2.1h.9a2.768,2.768,0,0,0-.9-.1c-.5,0-1.3-.1-2.2-.1h-2.2C466.1,234.9,465.8,234.8,465.5,234.8Z"/><path class="x" d="M476.5,234.7h.5l1.5-.1,5.7-.4c4.8-.3,11.5-.7,18.8-1.1l3.9-.2h.1v-.1c.1-1.6.2-3.2.3-4.6s.2-2.9.4-4.3c.2-2.7.5-5.1.6-7.2s.3-3.6.4-4.8c0-.5.1-1,.1-1.3h0c0,.3-.1.7-.1,1.3-.1,1.1-.3,2.8-.5,4.8s-.4,4.5-.7,7.2c-.1,1.4-.2,2.8-.4,4.3a37.077,37.077,0,0,0-.3,4.7l.1-.1-3.9.2c-7.3.4-14,.8-18.8,1.1l-5.7.4-1.5.1h-.4Z"/></g></svg>