<svg width="241" height="211" viewBox="0 0 241 211" fill="none" xmlns="http://www.w3.org/2000/svg">
<path d="M241 203.419C241 207.489 188.053 210.79 122.741 210.79C57.429 210.79 4.48486 207.483 4.48486 203.419C4.48486 199.355 57.429 196.045 122.741 196.045C188.053 196.045 241 199.346 241 203.419Z" fill="#C7C6DE"/>
<path d="M147.634 15.4774C140.109 15.4774 133.308 23.0168 133.308 30.3307V185.951C133.308 193.268 140.669 200.624 148.193 200.624H216.035C223.563 200.624 231.109 193.449 231.109 186.132V30.1503C231.109 22.8334 224.305 15.4774 216.784 15.4774H147.634Z" fill="#C7C6DE"/>
<path d="M133.308 51.3458H129.278V59.3181H133.308V51.3458Z" fill="#2A3756"/>
<path d="M235.139 68.7394H231.109V85.0446H235.139V68.7394Z" fill="#2A3756"/>
<path d="M133.308 63.3047H129.278V74.8993H133.308V63.3047Z" fill="#2A3756"/>
<path d="M133.308 78.8854H129.278V90.4799H133.308V78.8854Z" fill="#2A3756"/>
<path d="M176.919 43.5748C170.205 42.5106 161.242 44.5578 160.321 55.4189C159.671 63.0334 159.254 76.1612 164.27 77.4297C166.491 77.9829 174.683 76.555 174.683 76.555L173.477 90.5394L188.854 84.3378L185.242 71.7692C185.242 71.7692 199.06 47.0619 176.919 43.5748Z" fill="#E3847C"/>
<path d="M164.332 46.0333L175.528 59.3895C177.003 56.0377 179.74 56.657 181.37 59.134C183.371 62.1822 179.728 65.2334 180.188 66.2796C180.649 67.3257 184.379 71.7237 185.251 71.7687C186.123 71.8138 201.912 63.1742 192.732 45.5253C188.502 37.3907 173.279 35.6862 164.332 46.0333Z" fill="#293657"/>
<path d="M173.789 30.9491C173.025 36.1197 175.871 39.8082 180.708 40.4845C185.545 41.1609 188.254 38.0947 189.018 32.9242C189.782 27.7536 187.802 23.515 182.978 22.8326C178.153 22.1502 174.553 25.7786 173.789 30.9491Z" fill="#293657"/>
<path d="M231.109 130.848C221.896 94.8831 205.807 88.7627 205.807 88.7627C200.389 85.2004 191.995 84.3497 188.881 83.5831C183.113 86.5742 177.03 85.952 173.696 84.3467C168.438 84.6653 162.339 86.947 157.552 90.8249C157.552 90.8249 141.08 101.424 133.308 151.248C132.628 155.607 133.262 190.965 133.262 190.965L142.367 200.623L154.768 200.256L154.901 199.451L212.893 200.193C213.038 200.999 213.115 201.438 213.115 201.438L221.871 200.638C221.871 200.638 229.482 200.359 231.109 190.98C234.356 172.27 232.631 136.785 231.109 130.848Z" fill="white"/>
<path d="M173.699 84.3518C161.513 120.66 164.56 166.118 164.56 166.118L188.884 83.5852C188.884 83.5852 178.919 86.2156 173.699 84.3518Z" fill="#42389D"/>
<path d="M195.264 109.565L193.696 109.264C195.706 99.8159 196.343 88.0079 188.648 83.658L188.083 81.6379C195.817 85.0077 198.44 94.6995 195.264 109.565Z" fill="#2A3756"/>
<path d="M161.018 112.535L159.422 112.412C159.857 108.12 160.72 103.879 161.999 99.7499C164.739 90.933 168.936 84.9478 174.206 82.1792L174.008 84.4578C163.202 91.4591 161.018 112.315 161.018 112.535Z" fill="#2A3756"/>
<path d="M194.924 143.979L193.773 142.894C194.962 141.703 195.774 140.206 196.115 138.58L199.844 120.814C200.345 118.437 200.042 116.092 198.988 114.216C198.465 113.266 197.73 112.442 196.835 111.805C195.94 111.169 194.91 110.736 193.82 110.539C189.181 109.623 185.244 112.415 184.211 117.33L180.481 135.096C180.091 136.903 180.308 138.784 181.1 140.462L179.643 141.112C178.709 139.138 178.448 136.927 178.898 134.799L182.63 117.036C183.852 111.222 188.581 107.93 194.129 109.03C195.445 109.278 196.689 109.805 197.77 110.576C198.852 111.346 199.744 112.34 200.383 113.485C201.62 115.683 201.978 118.403 201.403 121.142L197.683 138.869C197.287 140.795 196.329 142.569 194.924 143.979Z" fill="#2A3756"/>
<path d="M163.458 115.67C163.697 117.97 162.735 119.981 161.312 120.161C159.889 120.342 158.529 118.628 158.309 116.328C158.089 114.029 159.033 112.018 160.455 111.837C161.878 111.657 163.223 113.37 163.458 115.67Z" fill="#2A3756"/>
<path d="M182.398 141.592C182.399 141.996 182.276 142.392 182.045 142.729C181.814 143.065 181.486 143.328 181.102 143.483C180.717 143.638 180.294 143.679 179.886 143.6C179.478 143.521 179.103 143.326 178.808 143.04C178.514 142.754 178.314 142.39 178.233 141.993C178.152 141.596 178.194 141.185 178.353 140.811C178.513 140.438 178.783 140.118 179.129 139.894C179.475 139.67 179.882 139.55 180.298 139.551C180.855 139.551 181.39 139.766 181.783 140.149C182.177 140.531 182.398 141.051 182.398 141.592Z" fill="#2A3756"/>
<path d="M195.626 144.333C195.626 144.735 195.503 145.128 195.273 145.462C195.044 145.797 194.717 146.057 194.335 146.211C193.953 146.365 193.533 146.405 193.127 146.326C192.722 146.248 192.349 146.054 192.057 145.77C191.764 145.486 191.565 145.124 191.485 144.73C191.404 144.336 191.445 143.927 191.603 143.556C191.762 143.184 192.03 142.867 192.374 142.644C192.717 142.42 193.122 142.301 193.535 142.301C193.81 142.301 194.082 142.353 194.336 142.455C194.589 142.557 194.82 142.707 195.014 142.895C195.208 143.084 195.362 143.308 195.467 143.555C195.572 143.802 195.626 144.066 195.626 144.333Z" fill="#2A3756"/>
<path opacity="0.3" d="M101.259 126.324C108.613 134.139 113.033 143.422 111.134 147.042C109.235 150.661 101.732 147.258 94.3805 139.436C87.0291 131.614 82.6034 122.334 84.5024 118.727C86.4013 115.12 93.9073 118.502 101.259 126.324Z" fill="white"/>
<path d="M94.5966 124.617C94.5966 124.617 100.139 119.958 100.804 120.237C101.469 120.517 98.1409 130.284 98.1409 130.284L93.3843 129.682L94.5966 124.617Z" fill="#26334C"/>
<path d="M32.4366 178.309L36.3242 166.826L26.31 158.108C26.31 158.108 28.7006 172.198 27.3584 173.358C26.0162 174.519 20.9317 180.573 20.3318 181.58C19.9668 182.199 20.607 189.582 21.1575 195.075C21.4908 197.726 21.9626 200.358 22.5709 202.963C23.0564 205.067 25.11 204.908 25.11 202.963V184.592L32.4366 178.309Z" fill="#26334C"/>
<path d="M82.4455 186.685C82.2939 183.925 85.4887 164.557 85.4887 164.557L76.6714 172.791C76.6714 172.791 77.2652 184.986 77.7631 186.516C80.9053 196.163 82.7114 203.793 85.9 202.275C86.4382 201.797 82.5444 188.549 82.4455 186.685Z" fill="#26334C"/>
<path d="M111.399 143.27C110.861 142.831 111.755 141.499 112.259 140.832C111.95 140.612 111.603 140.408 111.273 140.231C110.008 139.494 105.232 136.5 103.386 132.4C102.724 130.936 96.5976 127.38 96.5976 127.38C96.5976 127.38 96.1894 117.994 95.3605 117.841C95.3605 117.841 94.408 119.155 91.7049 122.47C90.0926 124.478 88.7576 126.682 87.7339 129.027C84.8391 133.647 75.6723 143.156 74.2682 143.61C71.2559 144.559 54.3913 144.944 46.4709 143.637C38.5505 142.329 29.2971 146.078 26.458 148.837C23.6188 151.597 25.858 161.039 27.6518 163.946C29.4455 166.853 31.9815 172.225 30.194 174.984C28.4064 177.744 26.9064 182.975 26.9064 184.427C26.9064 185.404 29.7703 192.164 31.8547 196.791C32.8568 199.027 35.365 203.843 36.667 203.197C38.5041 202.295 35.9186 197.612 35.1949 195.519C33.9176 191.819 32.2382 186.801 32.2753 185.948C32.3805 183.543 37.8268 175.709 40.5174 173.385C43.2081 171.061 44.5658 160.997 44.5658 160.997C44.5658 160.997 64.4891 170.03 67.3282 170.316C67.6962 172.492 68.4199 183.874 68.4632 187.036C68.4941 189.363 75.1342 207.616 78.5423 203.735C79.3867 202.776 73.1889 195.366 73.7734 184.956C73.962 181.595 77.8279 172.029 77.8279 172.029C77.8279 172.029 83.3948 169.324 86.1319 165.542C88.7638 161.935 89.7844 158.836 90.6596 147.157C90.9689 142.876 93.3008 141.087 93.6131 141.078C96.7213 144.289 100.365 143.483 102.607 144.286C105.61 145.38 108.078 145.885 109.318 145.927C112.083 146.026 112.803 145.741 113.586 144.226C112.896 144.003 111.869 143.649 111.399 143.27Z" fill="#2A3756"/>
<path d="M25.6942 149.97C25.6942 149.97 17.7924 164.075 13.6079 165.527C9.42349 166.979 2.54221 167.995 0 166.399C2.83292 169.594 10.7534 170.4 15.9893 168.073C23.1737 164.887 27.1664 155.447 27.1664 155.447L25.6942 149.97Z" fill="#2A3756"/>
<path d="M112.259 140.832C111.755 141.5 110.861 142.831 111.4 143.27C111.87 143.649 112.896 144.004 113.564 144.211C113.668 144.017 113.759 143.816 113.837 143.61C114.245 142.513 113.363 141.593 112.259 140.832Z" fill="#151C28"/>
<path d="M97.8193 136.037C98.1812 136.693 99.743 138.003 100.652 137.922C100.862 137.927 101.071 137.888 101.264 137.809C101.458 137.73 101.632 137.612 101.775 137.463C101.919 137.314 102.028 137.137 102.096 136.945C102.164 136.752 102.19 136.547 102.171 136.344C102.152 136.14 102.089 135.943 101.987 135.765C101.884 135.587 101.744 135.432 101.576 135.311C101.407 135.189 101.214 135.103 101.009 135.059C100.804 135.015 100.592 135.013 100.386 135.054C99.4739 135.132 97.8193 136.037 97.8193 136.037Z" fill="#151C28"/>
<path d="M96.5977 127.364L92.2246 127.965C92.2246 127.965 92.7751 122.461 95.9359 119.596C96.5111 120.693 96.5977 127.364 96.5977 127.364Z" fill="#212E42"/>
<path opacity="0.4" d="M94.3802 139.437C87.7741 132.412 83.5371 124.214 84.1185 119.994L77.9146 140.477C78.6259 145.119 88.0308 153.464 90.0658 153.464L109.024 148.455C105.817 148.879 100.055 145.482 94.3802 139.437Z" fill="white"/>
<path d="M216.342 203.01H148.077C143.471 203.002 139.057 201.22 135.802 198.053C132.547 194.887 130.716 190.595 130.711 186.119V30.0473C130.716 25.5687 132.548 21.2747 135.806 18.1075C139.064 14.9403 143.481 13.1585 148.089 13.153H216.354C220.962 13.1585 225.379 14.9403 228.637 18.1075C231.895 21.2747 233.727 25.5687 233.732 30.0473V186.125C233.726 190.604 231.891 194.898 228.63 198.064C225.37 201.23 220.95 203.009 216.342 203.01ZM148.077 16.7723C144.456 16.7755 140.984 18.1752 138.424 20.6642C135.864 23.1531 134.425 26.5278 134.422 30.0473V186.125C134.426 189.643 135.866 193.016 138.425 195.503C140.984 197.991 144.454 199.39 148.073 199.394H216.339C219.959 199.389 223.429 197.989 225.987 195.5C228.546 193.011 229.985 189.637 229.987 186.119V30.0473C229.983 26.5294 228.543 23.1567 225.984 20.6691C223.425 18.1816 219.955 16.7823 216.336 16.7783L148.077 16.7723Z" fill="#2A3756"/>
<path d="M160.212 24.3148C160.212 26.2151 159.827 28.0968 159.079 29.8524C158.331 31.608 157.234 33.2031 155.852 34.5467C154.469 35.8902 152.828 36.9559 151.021 37.6828C149.215 38.4098 147.279 38.7837 145.324 38.7833H93.0573C89.1092 38.7833 85.3228 37.2591 82.5307 34.5458C79.7387 31.8325 78.1698 28.1524 78.1689 24.3148C78.1689 20.4767 79.7375 16.7958 82.5296 14.0819C85.3217 11.3679 89.1086 9.84326 93.0573 9.84326H145.324C149.273 9.84326 153.06 11.3679 155.852 14.0819C158.644 16.7958 160.212 20.4767 160.212 24.3148Z" fill="#EBECED"/>
<path d="M107.135 63.4516C107.135 64.631 106.896 65.7989 106.432 66.8887C105.968 67.9785 105.288 68.9687 104.43 69.8028C103.572 70.6369 102.554 71.2986 101.433 71.75C100.312 72.2015 99.1102 72.4338 97.8968 72.4338H81.5363C79.0862 72.4338 76.7365 71.4878 75.0041 69.8039C73.2716 68.1199 72.2983 65.836 72.2983 63.4546C72.2979 62.2751 72.5366 61.1072 73.0006 60.0174C73.4647 58.9277 74.1451 57.9374 75.003 57.1033C75.8608 56.2692 76.8794 55.6075 78.0004 55.1561C79.1214 54.7046 80.3229 54.4723 81.5363 54.4723H97.8968C100.347 54.4723 102.697 55.4183 104.429 57.1023C106.161 58.7862 107.135 61.0701 107.135 63.4516Z" fill="#D55291"/>
<path d="M40.6441 205.354L19.9136 199.886L22.0352 194.592L31.4618 195.197L41.5286 203.154L40.6441 205.354Z" fill="white"/>
<path d="M23.1738 194.664L30.0644 195.106L31.45 190.404L24.513 188.958L23.1738 194.664Z" fill="#E2857E"/>
<path d="M58.403 111.882C58.403 111.882 47.9991 150.36 45.3023 156.183C43.4961 160.091 37.0757 181.555 33.9087 193.02L22.6543 189.774C21.9152 184.062 23.378 174.1 25.5398 167.041C30.0954 152.158 33.5809 144.195 34.2304 132.212C34.8798 120.23 30.0738 107.622 32.3036 100.84C34.5334 94.0586 58.403 111.882 58.403 111.882Z" fill="#D0CCCC"/>
<path d="M33.1353 100.177C33.1353 100.177 43.1557 143.492 43.5577 147.187C43.9598 150.881 41.4392 157.982 43.5422 170.706C44.5938 177.07 46.0968 189.176 47.337 194.329L57.5429 194.629C57.8522 183.54 58.3996 158.727 58.4708 154.218C58.5759 147.818 63.549 109.397 63.549 109.397C63.549 109.397 36.9053 91.297 33.1353 100.177Z" fill="#F2F2F2"/>
<path d="M68.7539 204.51L47.2812 205.151L47.7266 199.484L56.9243 197.395L68.9395 202.156L68.7539 204.51Z" fill="white"/>
<path d="M48.8373 199.231L55.5609 197.707L55.5083 194.569L48.4785 194.362L48.8373 199.231Z" fill="#E2857E"/>
<path d="M33.3431 38.2511C31.2524 52.2446 27.6772 106.229 27.6772 106.229C30.8194 105.928 31.54 104.894 32.9349 103.048C34.073 101.545 35.7183 99.1822 39.0213 99.0559C49.4067 111.901 68.1856 109.553 68.1856 109.553C66.4351 76.3116 68.8041 72.6081 60.5311 38.678C60.5435 38.678 36.074 30.4923 33.3431 38.2511Z" fill="#9090DD"/>
<path d="M71.7262 113.113C71.7262 113.113 70.6592 114.649 70.6159 114.766C70.5726 114.884 69.2521 115.867 69.6572 116.525C70.0624 117.183 71.7417 115.695 71.7417 115.695L72.051 113.747L71.7262 113.113Z" fill="#D17575"/>
<path d="M72.4593 116.805C72.7966 116.604 73.0881 116.338 73.316 116.023C73.5541 115.608 73.9067 111.58 73.8943 111.054C73.882 110.528 72.9665 108.216 72.9665 108.216L72.1655 111.676L72.4593 116.805Z" fill="#E2857E"/>
<path d="M71.7543 114.622L70.378 115.906C69.8536 116.038 69.358 116.261 68.9152 116.564C68.442 116.97 68.343 117.403 68.3801 117.523C68.4172 117.643 70.6533 117.223 70.6533 117.223L72.2986 115.593L71.7543 114.622Z" fill="#D17575"/>
<path d="M71.8688 115.479L70.1585 117.189C70.1585 117.189 68.4266 118.01 68.3245 118.569C68.2225 119.128 68.5379 119.287 68.5379 119.287L70.7832 118.328L71.8688 115.479Z" fill="#DB7D7B"/>
<path d="M72.2365 99.3383L72.3324 103.069C72.3324 103.069 73.0994 107.578 73.3499 108.288C73.6004 108.997 73.3499 111.387 73.319 112.415C73.2819 114.038 73.2819 115.072 72.9912 115.995C72.5087 117.537 70.0283 120.153 69.7036 120.204C69.3789 120.255 69.3943 119.332 69.6634 118.899C69.8582 118.343 71.1201 116.642 71.3366 116.127C71.553 115.613 71.4943 113.239 71.3551 112.821C71.1531 112.387 70.9216 111.968 70.6623 111.564L69.5582 111.264L69.0665 113.142C69.0665 113.142 69.7191 115.827 69.0665 116.019C68.1789 116.278 67.7737 114.381 67.6191 113.711C67.3964 112.743 66.9294 110.777 66.9511 109.803C66.9882 108.345 68.049 104.115 68.049 104.115L66.1934 98.8813L72.2365 99.3383Z" fill="#E2857E"/>
<path d="M60.6045 40.8691C65.7384 44.735 67.7641 68.5675 69.0321 77.2161C71.3177 92.7937 74.8835 106.177 74.8835 106.177C71.9636 107.434 68.7593 107.937 65.5807 107.638C63.3075 103.288 63.8982 87.8186 63.8982 87.8186C63.8982 87.8186 48.1687 42.4774 60.6045 40.8691Z" fill="#9090DD"/>
<path d="M29.6841 97.7274L34.2459 94.9197L39.0334 99.056L32.9469 103.048L29.6841 97.7274Z" fill="#E2857E"/>
<path d="M38.0187 91.9132L29.6838 97.7271C29.6838 97.7271 18.2717 89.5384 15.7666 79.1222C13.2615 68.7059 21.151 49.9267 33.9363 38.5846C42.3794 40.8482 36.7414 72.0307 36.7414 72.0307L38.0187 91.9132Z" fill="#9090DD"/>
<path d="M62.4606 12.9361C64.3873 12.0192 65.8626 6.27155 65.0492 5.00898C64.5512 4.2304 62.0029 6.30161 61.3379 6.21142C61.4152 5.86873 63.6049 4.10715 63.9173 3.31353C61.6874 0.124052 46.598 1.56397 43.9692 7.93091C42.893 10.5432 58.1524 14.9863 62.4606 12.9361Z" fill="#293657"/>
<path d="M40.8333 15.2062C40.5766 21.2395 45.2651 26.9601 51.5279 27.2096C57.7906 27.4591 63.1008 22.1443 63.3575 16.108C63.4126 14.6667 63.1749 13.2289 62.6582 11.8769C62.1415 10.5248 61.3558 9.28495 60.346 8.22808C59.3362 7.17121 58.1221 6.31804 56.7731 5.71731C55.424 5.11658 53.9664 4.78006 52.4835 4.72696C50.9376 4.66308 49.3952 4.91619 47.9565 5.46984C46.5178 6.0235 45.2152 6.86529 44.1332 7.94048C41.5755 8.01864 40.9539 12.3564 40.8333 15.2062Z" fill="#283558"/>
<path d="M43.4656 36.1283C43.181 37.2346 52.9447 45.2999 53.3128 42.9522L55.1498 29.3796L48.3211 23.7041C48.3211 23.7041 44.5387 33.1463 43.4656 36.1283Z" fill="#E4837A"/>
<path d="M48.806 25.8381L55.2481 29.1448L54.5925 33.5427C49.2359 30.8102 48.2833 27.8763 48.806 25.8381Z" fill="#CA706F"/>
<path d="M64.2911 25.8788C63.9601 25.8217 63.7653 25.3828 63.7065 24.5712C63.6686 23.6868 63.7361 22.8011 63.9076 21.9318C64.2168 20.1282 64.9189 18.3245 65.6055 18.3425H65.655C66.357 18.4628 66.3818 20.4198 66.0416 22.2925C65.7323 24.0962 65.0271 25.8999 64.3436 25.8818L64.2911 25.8788ZM64.2014 21.9709C64.0357 22.8186 63.9713 23.6821 64.0096 24.5441C64.0653 25.3257 64.2447 25.5632 64.3436 25.5812C64.6529 25.5812 65.355 24.3277 65.7323 22.2354C65.898 21.3877 65.9623 20.5243 65.924 19.6622C65.8684 18.8806 65.689 18.6432 65.59 18.6251C65.2653 18.6251 64.5787 19.8877 64.2168 21.9799L64.2014 21.9709Z" fill="white"/>
<path d="M64.3406 18.0894C64.3406 18.0894 60.8674 17.6144 60.1932 17.6505C59.0675 17.7106 58.7953 18.4051 58.6066 18.7839C58.5417 18.9132 63.1344 19.5355 63.8148 19.328C64.4952 19.1206 64.3406 18.0894 64.3406 18.0894Z" fill="#283558"/>
<path d="M50.89 20.2715C52.9096 14.8785 55.2848 9.79513 59.2589 9.95445C63.9351 10.1438 64.4299 16.6611 63.898 19.2193C63.898 19.2193 63.5887 23.6925 63.5887 23.975C63.5578 24.7416 63.4867 25.6585 63.3599 26.6204C63.3599 26.6204 62.33 33.0475 60.7156 33.0926C58.5043 33.1558 53.3364 31.7008 50.6797 29.5183C48.654 27.8499 48.3169 26.5122 48.3788 25.0963C48.3788 24.8889 49.6499 23.4249 50.2684 21.8888C50.4849 21.3296 50.7107 20.7555 50.89 20.2715Z" fill="#E4837A"/>
<path d="M63.8887 19.2205L65.2588 25.891L62.7754 26.8379L63.8887 19.2205Z" fill="#E4837A"/>
<path d="M61.3934 25.7849C61.0656 25.7278 60.8676 25.2889 60.8119 24.4773C60.7714 23.5921 60.8368 22.7054 61.0068 21.8349C61.3346 20.0312 62.0212 18.2275 62.7047 18.2275H62.7542C63.4563 18.3478 63.481 20.3048 63.1439 22.1776C62.8161 23.9812 62.1295 25.7849 61.446 25.7669L61.3934 25.7849ZM61.3037 21.877C61.1412 22.7241 61.0769 23.5862 61.112 24.4472C61.1676 25.2318 61.347 25.4693 61.446 25.4843C61.7552 25.4843 62.4542 24.2277 62.8346 22.1355C62.9978 21.2885 63.0611 20.4262 63.0233 19.5653C62.9707 18.7807 62.7882 18.5432 62.6923 18.5282C62.3614 18.5251 61.6841 19.7907 61.3037 21.886V21.877Z" fill="white"/>
<path d="M63.2611 21.2666C63.3276 21.1659 63.4191 21.0831 63.5272 21.0258C63.6353 20.9686 63.7565 20.9387 63.8796 20.939C64.0221 20.945 64.1588 20.9956 64.2693 21.0832L64.4579 20.8518C64.2968 20.7259 64.0985 20.6532 63.892 20.6444C63.7166 20.6408 63.5432 20.6806 63.3879 20.76C63.2327 20.8394 63.1007 20.9558 63.0044 21.0983L63.2611 21.2666Z" fill="white"/>
<path d="M50.4009 20.5045L50.3784 20.7983L61.2379 21.5828L61.2604 21.289L50.4009 20.5045Z" fill="white"/>
<path d="M49.7063 18.3391C49.3352 17.8672 48.3919 17.4944 47.2909 18.7149C46.1899 19.9354 46.6878 24.7122 49.2981 24.8174C51.9083 24.9226 50.7176 19.6318 49.7063 18.3391Z" fill="#E4837A"/>
<path d="M44.0526 8.49085C44.7902 6.6764 46.055 5.10971 47.6927 3.98175C49.1657 2.97917 50.8142 2.24574 52.5575 1.81738C54.5441 1.30501 56.5955 1.06919 58.6502 1.11697L58.6656 0.816359C56.5803 0.762584 54.4976 0.997407 52.4802 1.51377C50.7005 1.95502 49.0185 2.70781 47.5164 3.73525C45.8288 4.89731 44.5262 6.5123 43.7681 8.38263L44.0526 8.49085Z" fill="#293657"/>
<path d="M40.4027 7.98205C42.3833 7.63703 44.4243 7.85735 46.2788 8.61634C47.8252 9.21757 47.9674 8.97707 46.3994 8.34579C44.4935 7.56468 42.3952 7.33807 40.3594 7.69346L40.4027 7.98205Z" fill="#293657"/>
<path d="M135.13 36.8078L148.429 28.4778C148.535 28.4105 148.658 28.3724 148.785 28.3675C148.911 28.3626 149.037 28.3911 149.148 28.4499C149.259 28.5088 149.352 28.5958 149.417 28.7018C149.481 28.8078 149.515 28.9288 149.515 29.0519V45.7089C149.515 45.8321 149.481 45.9531 149.417 46.059C149.352 46.165 149.259 46.2521 149.148 46.3109C149.037 46.3698 148.911 46.3983 148.785 46.3934C148.658 46.3885 148.535 46.3504 148.429 46.2831L135.13 37.9561C135.031 37.8943 134.95 37.8094 134.894 37.7091C134.837 37.6087 134.808 37.4962 134.808 37.3819C134.808 37.2676 134.837 37.1551 134.894 37.0548C134.95 36.9545 135.031 36.8695 135.13 36.8078Z" fill="#EBECED"/>
<path d="M93.0972 56.4175L79.7986 65.4659C79.6896 65.5403 79.5616 65.5841 79.4287 65.5926C79.2958 65.6011 79.1631 65.5739 79.045 65.514C78.9269 65.4541 78.828 65.3639 78.7591 65.2531C78.6902 65.1423 78.6539 65.0152 78.6543 64.8857V46.7919C78.6539 46.6624 78.6902 46.5353 78.7591 46.4245C78.828 46.3137 78.9269 46.2235 79.045 46.1636C79.1631 46.1037 79.2958 46.0765 79.4287 46.085C79.5616 46.0935 79.6896 46.1373 79.7986 46.2117L93.0972 55.2571C93.1929 55.3226 93.2711 55.4095 93.325 55.5105C93.3789 55.6114 93.407 55.7235 93.407 55.8373C93.407 55.9511 93.3789 56.0632 93.325 56.1641C93.2711 56.2651 93.1929 56.352 93.0972 56.4175Z" fill="#D55291"/>
<path d="M84.3193 63.2745C84.3193 63.5682 84.2297 63.8553 84.0618 64.0995C83.8939 64.3437 83.6553 64.5341 83.3761 64.6465C83.097 64.7589 82.7898 64.7883 82.4934 64.731C82.1971 64.6737 81.9248 64.5322 81.7112 64.3246C81.4975 64.1169 81.352 63.8523 81.293 63.5642C81.2341 63.2761 81.2643 62.9775 81.38 62.7062C81.4956 62.4348 81.6914 62.2029 81.9427 62.0397C82.1939 61.8765 82.4893 61.7894 82.7915 61.7894C82.9921 61.7894 83.1908 61.8278 83.3761 61.9025C83.5615 61.9771 83.7299 62.0865 83.8718 62.2244C84.0137 62.3623 84.1262 62.526 84.203 62.7062C84.2798 62.8864 84.3193 63.0795 84.3193 63.2745Z" fill="white"/>
<path d="M91.1238 63.2745C91.1244 63.569 91.0351 63.857 90.8673 64.1021C90.6994 64.3472 90.4606 64.5384 90.1809 64.6515C89.9012 64.7646 89.5933 64.7945 89.2961 64.7374C88.999 64.6803 88.7259 64.5388 88.5115 64.3308C88.2971 64.1228 88.151 63.8577 88.0917 63.5689C88.0323 63.2802 88.0625 62.9808 88.1782 62.7088C88.294 62.4367 88.4902 62.2041 88.7421 62.0404C88.9939 61.8768 89.29 61.7894 89.5929 61.7894C89.7938 61.789 89.9928 61.8272 90.1785 61.9016C90.3642 61.9761 90.533 62.0854 90.6752 62.2233C90.8174 62.3613 90.9302 62.5251 91.0072 62.7055C91.0841 62.8859 91.1238 63.0792 91.1238 63.2745Z" fill="white"/>
<path d="M97.9277 63.2745C97.9277 63.5682 97.8381 63.8553 97.6702 64.0995C97.5023 64.3437 97.2637 64.5341 96.9845 64.6465C96.7054 64.7589 96.3982 64.7883 96.1018 64.731C95.8055 64.6737 95.5332 64.5322 95.3196 64.3246C95.1059 64.1169 94.9604 63.8523 94.9014 63.5642C94.8425 63.2761 94.8727 62.9775 94.9884 62.7062C95.104 62.4348 95.2998 62.2029 95.5511 62.0397C95.8023 61.8765 96.0977 61.7894 96.3999 61.7894C96.6005 61.7894 96.7992 61.8278 96.9845 61.9025C97.1699 61.9771 97.3383 62.0865 97.4802 62.2244C97.6221 62.3623 97.7346 62.526 97.8114 62.7062C97.8882 62.8864 97.9277 63.0795 97.9277 63.2745Z" fill="white"/>
</svg>
